{"title":"H.C. Potter - The Story of Vernon and Irene Castle (1939)","uid":7617921,"size":732944384,"categoryP":"video","categoryS":"movies","magnet":"?xt=urn:btih:62621e1383b43ddbee24fe5e93659c170de1ea09&amp;dn=H.C.+Potter+-+The+Story+of+Vernon+and+Irene+Castle+%281939%29&amp;tr=udp%3A%2F%2Ftracker.openbittorrent.com%3A80&amp;tr=udp%3A%2F%2Fopen.demonii.com%3A1337&amp;tr=udp%3A%2F%2Ftracker.coppersurfer.tk%3A6969&amp;tr=udp%3A%2F%2Fexodus.desync.com%3A6969","seeders":0,"leechers":3,"uploader":"brunicolos","files":1,"time":1347251996,"description":" &lt;a href=&quot;http://www.imdb.com/title/tt0031983/&quot; rel=&quot;nofollow&quot; target=&quot;_NEW&quot;&gt;http://www.imdb.com/title/tt0031983/&lt;/a&gt;\n\nFormat                                   : AVI\nFormat/Info                              : Audio Video Interleave\nFile size                                : 699 MiB\nDuration                                 : 1h 29mn\nOverall bit rate mode                    : Variable\nOverall bit rate                         : 1 093 Kbps\nWriting application                      : VirtualDubMod 1.5.4.1 (build 2178/release)\nWriting library                          : VirtualDubMod build 2178/release\n\nVideo\nID                                       : 0\nFormat                                   : MPEG-4 Visual\nFormat profile                           : Advanced Simple@L5\nFormat settings, BVOP                    : 1\nFormat settings, QPel                    : No\nFormat settings, GMC                     : No warppoints\nFormat settings, Matrix                  : Custom\nCodec ID                                 : XVID\nCodec ID/Hint                            : XviD\nDuration                                 : 1h 29mn\nBit rate                                 : 971 Kbps\nWidth                                    : 512 pixels\nHeight                                   : 384 pixels\nDisplay aspect ratio                     : 4:3\nFrame rate                               : 29.970 fps\nColor space                              : YUV\nChroma subsampling                       : 4:2:0\nBit depth                                : 8 bits\nScan type                                : Progressive\nCompression mode                         : Lossy\nBits/(Pixel*Frame)                       : 0.165\nStream size                              : 621 MiB (89%)\nWriting library                          : XviD 1.2.1 (UTC 2008-12-04)\n\nAudio\nID                                       : 1\nFormat                                   : MPEG Audio\nFormat version                           : Version 1\nFormat profile                           : Layer 3\nMode                                     : Joint stereo\nMode extension                           : MS Stereo\nCodec ID                                 : 55\nCodec ID/Hint                            : MP3\nDuration                                 : 1h 29mn\nBit rate mode                            : Variable\nBit rate                                 : 108 Kbps\nNominal bit rate                         : 128 Kbps\nChannel(s)                               : 2 channels\nSampling rate                            : 48.0 KHz\nCompression mode                         : Lossy\nStream size                              : 68.8 MiB (10%)\nAlignment                                : Aligned on interleaves\nInterleave, duration                     : 24 ms (0.72 video frame)\nInterleave, preload duration             : 478 ms","torrent":{"xt":"urn:btih:62621e1383b43ddbee24fe5e93659c170de1ea09","amp;dn":"H.C.+Potter+-+The+Story+of+Vernon+and+Irene+Castle+%281939%29","amp;tr":["udp%3A%2F%2Ftracker.openbittorrent.com%3A80","udp%3A%2F%2Fopen.demonii.com%3A1337","udp%3A%2F%2Ftracker.coppersurfer.tk%3A6969","udp%3A%2F%2Fexodus.desync.com%3A6969"],"infoHash":"62621e1383b43ddbee24fe5e93659c170de1ea09","infoHashBuffer":{"type":"Buffer","data":[98,98,30,19,131,180,61,219,238,36,254,94,147,101,156,23,13,225,234,9]},"announce":[],"urlList":[]}}